<?xml version="1.0" encoding="UTF-8"?>
<svg xmlns="http://www.w3.org/2000/svg" xmlns:xlink="http://www.w3.org/1999/xlink" width="50px" height="50px" viewBox="0 0 50 50" version="1.1">
<g id="surface1">
<path style=" stroke:none;fill-rule:evenodd;fill:rgb(26.666667%,37.647059%,62.745098%);fill-opacity:1;" d="M 26.707031 50 L 2.757812 50 C 1.234375 50 0 48.765625 0 47.238281 L 0 2.757812 C 0 1.234375 1.234375 0 2.757812 0 L 47.242188 0 C 48.765625 0 50 1.234375 50 2.757812 L 50 47.238281 C 50 48.765625 48.765625 50 47.242188 50 L 34.5 50 L 34.5 30.636719 L 41 30.636719 L 41.972656 23.089844 L 34.5 23.089844 L 34.5 18.273438 C 34.5 16.089844 35.105469 14.601562 38.238281 14.601562 L 42.234375 14.597656 L 42.234375 7.847656 C 41.542969 7.757812 39.171875 7.550781 36.410156 7.550781 C 30.652344 7.550781 26.707031 11.066406 26.707031 17.527344 L 26.707031 23.089844 L 20.191406 23.089844 L 20.191406 30.636719 L 26.707031 30.636719 Z M 26.707031 50 "/>
</g>
</svg>
