<?xml version="1.0" encoding="UTF-8"?>
<svg xmlns="http://www.w3.org/2000/svg" xmlns:xlink="http://www.w3.org/1999/xlink" width="50px" height="50px" viewBox="0 0 50 50" version="1.1">
<g id="surface1">
<path style=" stroke:none;fill-rule:nonzero;fill:rgb(50.196078%,50.588235%,51.764706%);fill-opacity:1;" d="M 19.53125 18.75 L 14.84375 18.75 C 14.414062 18.75 14.0625 19.101562 14.0625 19.53125 L 14.0625 36.71875 C 14.0625 37.148438 14.414062 37.5 14.84375 37.5 L 19.53125 37.5 C 19.960938 37.5 20.3125 37.148438 20.3125 36.71875 L 20.3125 19.53125 C 20.3125 19.101562 19.960938 18.75 19.53125 18.75 Z M 18.75 35.9375 L 15.625 35.9375 L 15.625 20.3125 L 18.75 20.3125 Z M 18.75 35.9375 "/>
<path style=" stroke:none;fill-rule:nonzero;fill:rgb(50.196078%,50.588235%,51.764706%);fill-opacity:1;" d="M 17.1875 10.9375 C 15.464844 10.9375 14.0625 12.339844 14.0625 14.0625 C 14.0625 15.785156 15.464844 17.1875 17.1875 17.1875 C 18.910156 17.1875 20.3125 15.785156 20.3125 14.0625 C 20.3125 12.339844 18.910156 10.9375 17.1875 10.9375 Z M 17.1875 15.625 C 16.324219 15.625 15.625 14.921875 15.625 14.0625 C 15.625 13.203125 16.324219 12.5 17.1875 12.5 C 18.050781 12.5 18.75 13.203125 18.75 14.0625 C 18.75 14.921875 18.050781 15.625 17.1875 15.625 Z M 17.1875 15.625 "/>
<path style=" stroke:none;fill-rule:nonzero;fill:rgb(50.196078%,50.588235%,51.764706%);fill-opacity:1;" d="M 30.492188 18.726562 C 29.65625 18.726562 28.777344 18.914062 28.0625 19.226562 C 27.945312 18.945312 27.667969 18.75 27.34375 18.75 L 22.65625 18.75 C 22.226562 18.75 21.875 19.101562 21.875 19.53125 L 21.875 36.71875 C 21.875 37.148438 22.226562 37.5 22.65625 37.5 L 27.34375 37.5 C 27.773438 37.5 28.125 37.148438 28.125 36.71875 L 28.121094 26.3125 C 28.121094 26.304688 28.101562 25.785156 28.433594 25.429688 C 28.695312 25.144531 29.140625 25 29.757812 25 C 30.773438 25 31.25 25.4375 31.25 26.375 L 31.25 36.71875 C 31.25 37.148438 31.601562 37.5 32.03125 37.5 L 36.71875 37.5 C 37.148438 37.5 37.5 37.148438 37.5 36.71875 L 37.5 26.027344 C 37.5 20.640625 33.726562 18.726562 30.492188 18.726562 Z M 35.9375 35.9375 L 32.8125 35.9375 L 32.8125 26.375 C 32.8125 24.5625 31.640625 23.4375 29.757812 23.4375 C 28.6875 23.4375 27.855469 23.75 27.285156 24.367188 C 26.492188 25.226562 26.554688 26.3125 26.5625 26.375 L 26.5625 35.9375 L 23.4375 35.9375 L 23.4375 20.3125 L 26.5625 20.3125 L 26.5625 20.867188 C 26.5625 21.296875 26.914062 21.648438 27.34375 21.648438 C 27.726562 21.648438 28.042969 21.375 28.109375 21.011719 C 28.320312 20.78125 29.238281 20.292969 30.492188 20.292969 C 31.765625 20.292969 35.9375 20.707031 35.9375 26.027344 Z M 35.9375 35.9375 "/>
<path style=" stroke:none;fill-rule:nonzero;fill:rgb(50.196078%,50.588235%,51.764706%);fill-opacity:1;" d="M 25 -0.0546875 C 11.183594 -0.0546875 -0.0546875 11.1875 -0.0546875 25 C -0.0546875 38.8125 11.183594 50.054688 25 50.054688 C 38.816406 50.054688 50.054688 38.8125 50.054688 25 C 50.054688 11.1875 38.816406 -0.0546875 25 -0.0546875 Z M 25 48.382812 C 12.105469 48.382812 1.617188 37.894531 1.617188 25 C 1.617188 12.105469 12.105469 1.617188 25 1.617188 C 37.894531 1.617188 48.382812 12.105469 48.382812 25 C 48.382812 37.894531 37.894531 48.382812 25 48.382812 Z M 25 48.382812 "/>
</g>
</svg>
