<?xml version="1.0" encoding="UTF-8"?>
<svg xmlns="http://www.w3.org/2000/svg" xmlns:xlink="http://www.w3.org/1999/xlink" width="50px" height="50px" viewBox="0 0 50 50" version="1.1">
<g id="surface1">
<path style=" stroke:none;fill-rule:nonzero;fill:rgb(13.72549%,12.156863%,12.54902%);fill-opacity:1;" d="M 22.59375 35.195312 C 22.246094 35.6875 21.917969 35.929688 21.601562 35.929688 C 21.390625 35.929688 21.273438 35.808594 21.234375 35.5625 C 21.21875 35.511719 21.21875 35.320312 21.21875 34.953125 L 21.21875 28.574219 L 19.652344 28.574219 L 19.652344 35.425781 C 19.652344 36.039062 19.703125 36.449219 19.789062 36.714844 C 19.945312 37.152344 20.296875 37.359375 20.800781 37.359375 C 21.378906 37.359375 21.972656 37.007812 22.59375 36.292969 L 22.59375 37.238281 L 24.164062 37.238281 L 24.164062 28.574219 L 22.59375 28.574219 Z M 22.59375 35.195312 "/>
<path style=" stroke:none;fill-rule:nonzero;fill:rgb(13.72549%,12.156863%,12.54902%);fill-opacity:1;" d="M 13.949219 27.246094 L 15.796875 27.246094 L 15.796875 37.238281 L 17.542969 37.238281 L 17.542969 27.246094 L 19.421875 27.246094 L 19.421875 25.609375 L 13.949219 25.609375 Z M 13.949219 27.246094 "/>
<path style=" stroke:none;fill-rule:nonzero;fill:rgb(13.72549%,12.156863%,12.54902%);fill-opacity:1;" d="M 24.640625 19.671875 C 25.152344 19.671875 25.398438 19.265625 25.398438 18.453125 L 25.398438 14.769531 C 25.398438 13.960938 25.152344 13.558594 24.640625 13.558594 C 24.128906 13.558594 23.882812 13.960938 23.882812 14.769531 L 23.882812 18.453125 C 23.882812 19.265625 24.128906 19.671875 24.640625 19.671875 Z M 24.640625 19.671875 "/>
<path style=" stroke:none;fill-rule:nonzero;fill:rgb(13.72549%,12.156863%,12.54902%);fill-opacity:1;" d="M 28.71875 28.46875 C 28.140625 28.46875 27.601562 28.785156 27.09375 29.40625 L 27.09375 25.609375 L 25.523438 25.609375 L 25.523438 37.238281 L 27.09375 37.238281 L 27.09375 36.398438 C 27.621094 37.046875 28.160156 37.359375 28.71875 37.359375 C 29.34375 37.359375 29.761719 37.027344 29.972656 36.382812 C 30.078125 36.015625 30.128906 35.441406 30.128906 34.636719 L 30.128906 31.1875 C 30.128906 30.367188 30.078125 29.792969 29.972656 29.445312 C 29.761719 28.796875 29.34375 28.46875 28.71875 28.46875 Z M 28.558594 34.761719 C 28.558594 35.542969 28.328125 35.929688 27.878906 35.929688 C 27.621094 35.929688 27.359375 35.804688 27.09375 35.542969 L 27.09375 30.261719 C 27.359375 30.003906 27.617188 29.878906 27.878906 29.878906 C 28.332031 29.878906 28.558594 30.28125 28.558594 31.0625 Z M 28.558594 34.761719 "/>
<path style=" stroke:none;fill-rule:nonzero;fill:rgb(13.72549%,12.156863%,12.54902%);fill-opacity:1;" d="M 33.71875 28.46875 C 32.917969 28.46875 32.289062 28.761719 31.835938 29.355469 C 31.503906 29.792969 31.351562 30.472656 31.351562 31.398438 L 31.351562 34.433594 C 31.351562 35.351562 31.523438 36.035156 31.855469 36.46875 C 32.308594 37.0625 32.933594 37.355469 33.757812 37.355469 C 34.578125 37.355469 35.21875 37.046875 35.65625 36.417969 C 35.84375 36.140625 35.96875 35.824219 36.023438 35.476562 C 36.035156 35.320312 36.054688 34.96875 36.054688 34.464844 L 36.054688 34.234375 L 34.453125 34.234375 C 34.453125 34.867188 34.433594 35.214844 34.417969 35.300781 C 34.328125 35.71875 34.101562 35.929688 33.71875 35.929688 C 33.179688 35.929688 32.917969 35.527344 32.917969 34.726562 L 32.917969 33.191406 L 36.054688 33.191406 L 36.054688 31.394531 C 36.054688 30.46875 35.898438 29.792969 35.570312 29.355469 C 35.128906 28.761719 34.503906 28.46875 33.71875 28.46875 Z M 34.484375 31.882812 L 32.917969 31.882812 L 32.917969 31.082031 C 32.917969 30.28125 33.179688 29.882812 33.703125 29.882812 C 34.222656 29.882812 34.484375 30.28125 34.484375 31.082031 Z M 34.484375 31.882812 "/>
<path style=" stroke:none;fill-rule:nonzero;fill:rgb(13.72549%,12.156863%,12.54902%);fill-opacity:1;" d="M 39.5 7 L 10.5 7 C 8.574219 7 7 8.574219 7 10.5 L 7 39.5 C 7 41.425781 8.574219 43 10.5 43 L 39.5 43 C 41.425781 43 43 41.425781 43 39.5 L 43 10.5 C 43 8.574219 41.425781 7 39.5 7 Z M 28.289062 12.234375 L 29.871094 12.234375 L 29.871094 18.679688 C 29.871094 19.054688 29.871094 19.246094 29.890625 19.296875 C 29.925781 19.542969 30.050781 19.671875 30.261719 19.671875 C 30.578125 19.671875 30.914062 19.425781 31.265625 18.925781 L 31.265625 12.234375 L 32.851562 12.234375 L 32.851562 20.988281 L 31.265625 20.988281 L 31.265625 20.035156 C 30.632812 20.757812 30.03125 21.113281 29.453125 21.113281 C 28.941406 21.113281 28.589844 20.902344 28.429688 20.460938 C 28.34375 20.195312 28.289062 19.777344 28.289062 19.15625 Z M 22.296875 15.089844 C 22.296875 14.152344 22.457031 13.46875 22.792969 13.027344 C 23.234375 12.429688 23.851562 12.128906 24.640625 12.128906 C 25.433594 12.128906 26.050781 12.429688 26.492188 13.027344 C 26.824219 13.46875 26.984375 14.152344 26.984375 15.089844 L 26.984375 18.15625 C 26.984375 19.085938 26.824219 19.777344 26.492188 20.214844 C 26.050781 20.8125 25.4375 21.113281 24.640625 21.113281 C 23.851562 21.113281 23.230469 20.8125 22.792969 20.214844 C 22.457031 19.777344 22.296875 19.085938 22.296875 18.15625 Z M 18.054688 9.242188 L 19.304688 13.855469 L 20.503906 9.242188 L 22.28125 9.242188 L 20.164062 16.230469 L 20.164062 20.988281 L 18.40625 20.988281 L 18.40625 16.230469 C 18.246094 15.386719 17.894531 14.152344 17.332031 12.515625 C 16.960938 11.425781 16.574219 10.328125 16.203125 9.242188 Z M 37.535156 37.757812 C 37.21875 39.140625 36.089844 40.160156 34.726562 40.3125 C 31.507812 40.671875 28.246094 40.671875 25 40.671875 C 21.753906 40.671875 18.492188 40.671875 15.273438 40.3125 C 13.910156 40.160156 12.78125 39.140625 12.464844 37.757812 C 12.011719 35.789062 12.011719 33.644531 12.011719 31.617188 C 12.011719 29.589844 12.015625 27.445312 12.46875 25.476562 C 12.785156 24.09375 13.917969 23.078125 15.277344 22.925781 C 18.5 22.5625 21.757812 22.5625 25.003906 22.5625 C 28.25 22.5625 31.511719 22.5625 34.734375 22.925781 C 36.09375 23.078125 37.222656 24.09375 37.542969 25.476562 C 37.992188 27.445312 37.992188 29.589844 37.992188 31.617188 C 37.992188 33.644531 37.988281 35.789062 37.535156 37.757812 Z M 37.535156 37.757812 "/>
</g>
</svg>
