<?xml version="1.0" encoding="UTF-8"?>
<svg xmlns="http://www.w3.org/2000/svg" xmlns:xlink="http://www.w3.org/1999/xlink" width="50px" height="50px" viewBox="0 0 50 50" version="1.1">
<g id="surface1">
<path style=" stroke:none;fill-rule:nonzero;fill:rgb(0%,0%,0%);fill-opacity:1;" d="M 25 0 C 11.191406 0 0 11.191406 0 25 C 0 38.808594 11.191406 50 25 50 C 38.808594 50 50 38.808594 50 25 C 50 11.191406 38.808594 0 25 0 Z M 25.480469 21.230469 C 25.488281 21.230469 25.496094 21.230469 25.503906 21.230469 C 25.421875 20.867188 25.375 20.484375 25.375 20.089844 C 25.375 17.328125 27.617188 15.085938 30.382812 15.085938 C 31.820312 15.085938 33.121094 15.695312 34.035156 16.667969 C 34.972656 16.480469 35.859375 16.160156 36.683594 15.738281 C 36.859375 15.652344 37.03125 15.566406 37.203125 15.476562 C 36.90625 16.386719 36.351562 17.175781 35.628906 17.773438 C 35.433594 17.925781 35.230469 18.074219 35.011719 18.199219 C 35.023438 18.195312 35.039062 18.191406 35.054688 18.191406 C 35.039062 18.199219 35.027344 18.210938 35.011719 18.222656 C 35.832031 18.121094 36.621094 17.921875 37.367188 17.640625 C 37.535156 17.582031 37.703125 17.523438 37.867188 17.460938 C 37.199219 18.453125 36.359375 19.324219 35.390625 20.023438 C 35.398438 20.238281 35.40625 20.453125 35.40625 20.671875 C 35.40625 27.285156 30.371094 34.914062 21.164062 34.914062 C 18.335938 34.914062 15.703125 34.085938 13.488281 32.664062 C 13.878906 32.710938 14.277344 32.734375 14.683594 32.734375 C 16.550781 32.734375 18.296875 32.21875 19.796875 31.335938 C 20.175781 31.117188 20.546875 30.882812 20.898438 30.617188 C 20.890625 30.617188 20.882812 30.613281 20.871094 30.613281 C 20.878906 30.605469 20.890625 30.597656 20.898438 30.59375 C 19.003906 30.558594 17.367188 29.464844 16.546875 27.882812 C 16.425781 27.640625 16.320312 27.386719 16.238281 27.117188 C 16.539062 27.175781 16.847656 27.207031 17.164062 27.207031 C 17.496094 27.207031 17.816406 27.164062 18.128906 27.101562 C 18.246094 27.085938 18.363281 27.070312 18.480469 27.054688 C 18.464844 27.050781 18.453125 27.042969 18.4375 27.039062 C 18.453125 27.035156 18.46875 27.035156 18.484375 27.03125 C 16.195312 26.570312 14.46875 24.546875 14.46875 22.121094 C 14.46875 22.101562 14.46875 22.085938 14.46875 22.066406 L 14.472656 22.058594 C 15.011719 22.359375 15.613281 22.558594 16.25 22.640625 C 16.410156 22.667969 16.566406 22.691406 16.722656 22.703125 C 16.714844 22.695312 16.703125 22.6875 16.691406 22.679688 C 16.707031 22.679688 16.722656 22.683594 16.738281 22.683594 C 15.394531 21.789062 14.511719 20.253906 14.511719 18.519531 C 14.511719 17.722656 14.703125 16.976562 15.035156 16.308594 C 15.085938 16.207031 15.132812 16.105469 15.195312 16.007812 C 17.410156 18.726562 20.617188 20.59375 24.257812 21.101562 C 24.664062 21.160156 25.070312 21.214844 25.480469 21.238281 C 25.480469 21.234375 25.480469 21.230469 25.480469 21.230469 Z M 25.480469 21.230469 "/>
</g>
</svg>
